<svg xmlns="http://www.w3.org/2000/svg" xmlns:xlink="http://www.w3.org/1999/xlink" width="144.416" height="47.24" viewBox="0 0 144.416 47.24">
  <defs>
    <clipPath id="clip-path">
      <rect width="144.416" height="47.24" fill="none"/>
    </clipPath>
  </defs>
  <g id="Repeat_Grid_1" data-name="Repeat Grid 1" clip-path="url(#clip-path)">
    <g id="Group_377" data-name="Group 377">
      <path id="Path_97" data-name="Path 97" d="M241.057,976.681a6.384,6.384,0,0,1-6.382,6.384H103.025a6.385,6.385,0,0,1-6.384-6.384V942.209a6.385,6.385,0,0,1,6.384-6.384h131.65a6.383,6.383,0,0,1,6.382,6.384Z" transform="translate(-96.641 -935.825)"/>
      <g id="Group_373" data-name="Group 373" transform="translate(9.687 7.344)">
        <path id="Path_98" data-name="Path 98" d="M159.61,1006.146a23.4,23.4,0,0,1-2.115,3.948c-1.374,2.091-3.309,4.695-5.708,4.717-2.132.02-2.679-1.387-5.571-1.372s-3.5,1.4-5.628,1.377c-2.4-.022-4.233-2.373-5.606-4.464-3.841-5.847-4.242-12.708-1.873-16.356a8.5,8.5,0,0,1,6.836-4.11c2.542,0,4.141,1.394,6.242,1.394,2.039,0,3.282-1.4,6.221-1.4a8.3,8.3,0,0,1,6.253,3.3A7.155,7.155,0,0,0,159.61,1006.146Z" transform="translate(-131.637 -982.264)" fill="#fff"/>
        <g id="Group_372" data-name="Group 372" transform="translate(13.445)">
          <path id="Path_99" data-name="Path 99" d="M185.3,967.64a7.136,7.136,0,0,0,1.584-5.285,7.71,7.71,0,0,0-4.977,2.677,6.624,6.624,0,0,0-1.626,5.155A6.507,6.507,0,0,0,185.3,967.64Z" transform="translate(-180.207 -962.355)" fill="#fff"/>
        </g>
      </g>
      <g id="Group_376" data-name="Group 376" transform="translate(43.859 7.414)">
        <g id="Group_374" data-name="Group 374" transform="translate(0 11.316)">
          <path id="Path_100" data-name="Path 100" d="M260.584,1004.42l-5.5,16.195h2.52l1.642-4.973h5.327l1.689,4.973h2.589l-5.525-16.195Zm1.305,2.663c.186.723.386,1.474.644,2.285l1.483,4.294H259.8l1.462-4.322C261.481,1008.639,261.692,1007.882,261.889,1007.083Z" transform="translate(-255.082 -1004.162)" fill="#fff"/>
          <path id="Path_101" data-name="Path 101" d="M314.248,1019.586a4.584,4.584,0,0,0-3.9,1.869l-.1-1.611h-2.241l.013.206c.066,1,.094,2.108.094,3.693v12.483h2.45V1030.4a4.3,4.3,0,0,0,3.349,1.439,5.051,5.051,0,0,0,3.713-1.578,6.693,6.693,0,0,0,1.639-4.713,6.518,6.518,0,0,0-1.423-4.3A4.662,4.662,0,0,0,314.248,1019.586Zm-.61,2.028c2.184,0,3.162,2.023,3.162,4.029,0,2.586-1.247,4.192-3.255,4.192a2.971,2.971,0,0,1-2.887-2.274,3.125,3.125,0,0,1-.087-.793v-1.97a3.689,3.689,0,0,1,.078-.6c.012-.067.025-.134.035-.2A3.1,3.1,0,0,1,313.638,1021.614Z" transform="translate(-293.362 -1015.13)" fill="#fff"/>
          <path id="Path_102" data-name="Path 102" d="M359.83,1019.586a4.587,4.587,0,0,0-3.9,1.869l-.1-1.611H353.6l.012.206c.066,1,.094,2.108.094,3.693v12.483h2.45V1030.4a4.3,4.3,0,0,0,3.348,1.439,5.058,5.058,0,0,0,3.715-1.578,6.7,6.7,0,0,0,1.638-4.713,6.518,6.518,0,0,0-1.424-4.3A4.66,4.66,0,0,0,359.83,1019.586Zm-.61,2.028c2.183,0,3.161,2.023,3.161,4.029,0,2.586-1.248,4.192-3.254,4.192a2.971,2.971,0,0,1-2.887-2.274,3.127,3.127,0,0,1-.086-.793v-1.97a3.641,3.641,0,0,1,.078-.607c.012-.066.024-.132.035-.2A3.1,3.1,0,0,1,359.22,1021.614Z" transform="translate(-326.326 -1015.13)" fill="#fff"/>
          <path id="Path_103" data-name="Path 103" d="M417.978,1010.608c-2.287-.886-3.02-1.582-3.02-2.869,0-1.083.861-2.176,2.785-2.176a5.568,5.568,0,0,1,2.876.722l.208.128.691-2.045-.137-.08a7.1,7.1,0,0,0-3.568-.8c-3.125,0-5.307,1.845-5.307,4.485,0,2.13,1.367,3.618,4.3,4.685,2.079.777,2.853,1.573,2.853,2.938,0,1.545-1.194,2.5-3.114,2.5a6.705,6.705,0,0,1-3.532-1l-.213-.136-.658,2.092.121.08a8.391,8.391,0,0,0,4.141,1.064c4.211,0,5.7-2.568,5.7-4.766C422.111,1013.165,420.914,1011.767,417.978,1010.608Z" transform="translate(-368.668 -1003.488)" fill="#fff"/>
          <path id="Path_104" data-name="Path 104" d="M453.207,1010.439l-2.4.754v2.036h-1.759v1.958H450.8v6a4.585,4.585,0,0,0,.848,3.109,3.141,3.141,0,0,0,2.371.931,5.773,5.773,0,0,0,1.894-.292l.137-.049-.117-1.962-.235.072a3.69,3.69,0,0,1-1.14.132c-.949,0-1.355-.6-1.355-2.011v-5.928h2.956v-1.958h-2.956Z" transform="translate(-395.353 -1008.515)" fill="#fff"/>
          <path id="Path_105" data-name="Path 105" d="M481.484,1019.586c-3.428,0-5.822,2.559-5.822,6.221,0,3.553,2.317,6.033,5.635,6.033h.023c2.8,0,5.822-1.954,5.822-6.244a6.19,6.19,0,0,0-1.561-4.334A5.452,5.452,0,0,0,481.484,1019.586Zm-.071,1.934c2.2,0,3.208,2.149,3.208,4.146,0,2.456-1.369,4.239-3.254,4.239h-.024c-1.858,0-3.207-1.753-3.207-4.168C478.136,1023.639,479.15,1021.52,481.413,1021.52Z" transform="translate(-414.602 -1015.13)" fill="#fff"/>
          <path id="Path_106" data-name="Path 106" d="M528.31,1019.7l-.147-.037a2.362,2.362,0,0,0-.609-.076,3.5,3.5,0,0,0-3.072,1.973l-.072-1.715h-2.2l.014.206c.065.97.092,2.059.092,3.528l-.023,8h2.45v-6.245a6.313,6.313,0,0,1,.068-.95,2.708,2.708,0,0,1,2.578-2.469,6.266,6.266,0,0,1,.657.041l.262.027Z" transform="translate(-448.266 -1015.13)" fill="#fff"/>
          <path id="Path_107" data-name="Path 107" d="M549.671,1019.5c-3.262,0-5.54,2.606-5.54,6.338,0,3.594,2.266,5.916,5.775,5.916a9.4,9.4,0,0,0,3.879-.744l.148-.066-.471-1.826-.2.082a7.593,7.593,0,0,1-3.07.549,3.406,3.406,0,0,1-3.67-3.552l7.909.024.032-.156a5.442,5.442,0,0,0,.074-1.022C554.531,1022.487,553.259,1019.5,549.671,1019.5Zm-.163,1.864a2.418,2.418,0,0,1,1.8.686,3.488,3.488,0,0,1,.844,2.281h-5.588C546.79,1022.918,547.675,1021.366,549.508,1021.366Z" transform="translate(-464.118 -1015.069)" fill="#fff"/>
        </g>
        <g id="Group_375" data-name="Group 375">
          <path id="Path_108" data-name="Path 108" d="M255.082,964.04a17.855,17.855,0,0,1,2.35-.159,5.245,5.245,0,0,1,3.45.944,3.354,3.354,0,0,1,1.213,2.763,3.88,3.88,0,0,1-1.226,2.979,5.686,5.686,0,0,1-3.778,1.1,17,17,0,0,1-2.009-.091Zm1.112,6.789a7.9,7.9,0,0,0,1.112.046c2.35.011,3.626-1.183,3.626-3.252.013-1.831-1.125-2.957-3.449-2.957a6.98,6.98,0,0,0-1.289.1Z" transform="translate(-255.082 -963.528)" fill="#fff"/>
          <path id="Path_109" data-name="Path 109" d="M287,977.194a2.763,2.763,0,0,1-2.931-2.832,2.839,2.839,0,0,1,3.033-2.923,2.74,2.74,0,0,1,2.944,2.82,2.849,2.849,0,0,1-3.032,2.934Zm.038-.751a1.958,1.958,0,0,0,1.858-2.149,1.87,1.87,0,1,0-1.87,2.149Z" transform="translate(-276.041 -968.995)" fill="#fff"/>
          <path id="Path_110" data-name="Path 110" d="M309.038,971.891l.821,2.786c.164.614.329,1.194.442,1.763h.038c.139-.558.341-1.148.543-1.751l1-2.8h.935l.948,2.752c.227.649.4,1.24.543,1.8h.038a15.221,15.221,0,0,1,.468-1.785l.871-2.763h1.1l-1.971,5.5H313.8l-.935-2.627a18.026,18.026,0,0,1-.544-1.82H312.3a15.115,15.115,0,0,1-.556,1.831l-.985,2.615h-1.011l-1.845-5.5Z" transform="translate(-293.279 -969.321)" fill="#fff"/>
          <path id="Path_111" data-name="Path 111" d="M343.879,973.055c0-.58-.013-1.035-.051-1.49h.986l.063.9h.025a2.316,2.316,0,0,1,2.022-1.024,2.093,2.093,0,0,1,2.161,2.342v3.286h-1.111V973.9c0-.887-.367-1.637-1.416-1.637a1.586,1.586,0,0,0-1.491,1.023,1.348,1.348,0,0,0-.076.466v3.32h-1.112Z" transform="translate(-319.262 -968.995)" fill="#fff"/>
          <path id="Path_112" data-name="Path 112" d="M369.346,962.607h1.112v8.074h-1.112Z" transform="translate(-337.716 -962.607)" fill="#fff"/>
          <path id="Path_113" data-name="Path 113" d="M381.363,977.194a2.763,2.763,0,0,1-2.931-2.832,2.839,2.839,0,0,1,3.033-2.923,2.741,2.741,0,0,1,2.944,2.82,2.85,2.85,0,0,1-3.032,2.934Zm.037-.751a1.959,1.959,0,0,0,1.858-2.149,1.87,1.87,0,1,0-1.87,2.149Z" transform="translate(-344.287 -968.995)" fill="#fff"/>
          <path id="Path_114" data-name="Path 114" d="M408.146,975.75a8.3,8.3,0,0,0,.089,1.319h-1l-.1-.693H407.1a2.351,2.351,0,0,1-1.87.819,1.667,1.667,0,0,1-1.87-1.581c0-1.33,1.314-2.058,3.677-2.047v-.113c0-.455-.138-1.285-1.39-1.274a3.191,3.191,0,0,0-1.6.409l-.253-.671a4.306,4.306,0,0,1,2.022-.477,2.046,2.046,0,0,1,2.337,2.252Zm-1.086-1.49c-1.213-.023-2.59.171-2.59,1.239a.93.93,0,0,0,1.036.956,1.542,1.542,0,0,0,1.5-.922.918.918,0,0,0,.051-.318Z" transform="translate(-362.313 -968.995)" fill="#fff"/>
          <path id="Path_115" data-name="Path 115" d="M431.22,962.607v6.652c0,.489.014,1.046.051,1.421h-1l-.05-.955H430.2a2.288,2.288,0,0,1-2.072,1.08,2.625,2.625,0,0,1-2.629-2.8,2.744,2.744,0,0,1,2.742-2.956,2.1,2.1,0,0,1,1.846.83h.025v-3.275Zm-1.112,4.81a1.667,1.667,0,0,0-.051-.432,1.607,1.607,0,0,0-1.6-1.149,1.883,1.883,0,0,0-1.832,2.115A1.826,1.826,0,0,0,428.427,970a1.655,1.655,0,0,0,1.63-1.194,1.559,1.559,0,0,0,.051-.432Z" transform="translate(-378.323 -962.607)" fill="#fff"/>
          <path id="Path_116" data-name="Path 116" d="M463.851,977.194a2.763,2.763,0,0,1-2.931-2.832,2.84,2.84,0,0,1,3.033-2.923,2.741,2.741,0,0,1,2.944,2.82,2.85,2.85,0,0,1-3.032,2.934Zm.038-.751a1.958,1.958,0,0,0,1.857-2.149,1.87,1.87,0,1,0-1.87,2.149Z" transform="translate(-403.941 -968.995)" fill="#fff"/>
          <path id="Path_117" data-name="Path 117" d="M487.449,973.055c0-.58-.013-1.035-.051-1.49h.986l.064.9h.025a2.316,2.316,0,0,1,2.022-1.024,2.093,2.093,0,0,1,2.161,2.342v3.286h-1.112V973.9c0-.887-.366-1.637-1.415-1.637a1.588,1.588,0,0,0-1.491,1.023,1.354,1.354,0,0,0-.076.466v3.32h-1.112Z" transform="translate(-423.09 -968.995)" fill="#fff"/>
          <path id="Path_118" data-name="Path 118" d="M522.119,967.127v1.319h1.592v.762h-1.592v2.968c0,.682.215,1.069.834,1.069a2.291,2.291,0,0,0,.644-.068l.05.762a3.341,3.341,0,0,1-.986.137,1.684,1.684,0,0,1-1.2-.421,2,2,0,0,1-.429-1.445v-3h-.948v-.762h.948v-1.012Z" transform="translate(-446.728 -965.876)" fill="#fff"/>
          <path id="Path_119" data-name="Path 119" d="M537.705,962.607h1.112v3.434h.026a1.887,1.887,0,0,1,.8-.705,2.347,2.347,0,0,1,1.137-.284,2.092,2.092,0,0,1,2.135,2.354v3.275H541.8V967.52c0-.9-.366-1.637-1.415-1.637a1.6,1.6,0,0,0-1.491,1,1.1,1.1,0,0,0-.076.477v3.32h-1.112Z" transform="translate(-459.471 -962.607)" fill="#fff"/>
          <path id="Path_120" data-name="Path 120" d="M562.517,974.457a1.864,1.864,0,0,0,2.085,1.911,4.64,4.64,0,0,0,1.694-.273l.2.7a5.468,5.468,0,0,1-2.047.353,2.712,2.712,0,0,1-3.008-2.775,2.8,2.8,0,0,1,2.881-2.98,2.409,2.409,0,0,1,2.515,2.593,2.311,2.311,0,0,1-.037.477Zm3.248-.716a1.477,1.477,0,0,0-1.53-1.626,1.731,1.731,0,0,0-1.706,1.626Z" transform="translate(-476.638 -968.964)" fill="#fff"/>
        </g>
      </g>
    </g>
  </g>
</svg>
