<svg id="Group_371" data-name="Group 371" xmlns="http://www.w3.org/2000/svg" xmlns:xlink="http://www.w3.org/1999/xlink" width="141.585" height="46.313" viewBox="0 0 141.585 46.313">
  <defs>
    <clipPath id="clip-path">
      <path id="Path_72" data-name="Path 72" d="M155.069,341.03l-6.384-3.686-12.314-7.11c-.684-.395-1.365-.156-1.365.669v28.969c0,.618.487.885,1.081.542l12.6-7.274,6.384-3.686,6.137-3.542c.72-.416.651-.987.043-1.314S155.069,341.03,155.069,341.03Z" transform="translate(-135.006 -330.047)" fill="none"/>
    </clipPath>
    <linearGradient id="linear-gradient" x1="0.5" x2="0.5" y2="1" gradientUnits="objectBoundingBox">
      <stop offset="0" stop-color="#006aa2"/>
      <stop offset="0.345" stop-color="#2f8da6"/>
      <stop offset="0.786" stop-color="#66b6ac"/>
      <stop offset="1" stop-color="#7cc6af"/>
    </linearGradient>
    <linearGradient id="linear-gradient-2" y1="0.5" x2="1" y2="0.5" gradientUnits="objectBoundingBox">
      <stop offset="0" stop-color="#4ab59d"/>
      <stop offset="1" stop-color="#dfe385"/>
    </linearGradient>
    <linearGradient id="linear-gradient-3" x1="0.5" x2="0.5" y2="1" gradientUnits="objectBoundingBox">
      <stop offset="0" stop-color="#e4282d"/>
      <stop offset="0.316" stop-color="#ba2d4e"/>
      <stop offset="0.777" stop-color="#83357b"/>
      <stop offset="1" stop-color="#6e388d"/>
    </linearGradient>
    <linearGradient id="linear-gradient-4" x1="0.5" x2="0.5" y2="1" gradientUnits="objectBoundingBox">
      <stop offset="0" stop-color="#f07165"/>
      <stop offset="0.659" stop-color="#faa460"/>
      <stop offset="1" stop-color="#ffba5e"/>
    </linearGradient>
  </defs>
  <path id="Path_67" data-name="Path 67" d="M238.226,336.129a6.259,6.259,0,0,1-6.257,6.26H102.9a6.26,6.26,0,0,1-6.259-6.26v-33.8a6.26,6.26,0,0,1,6.259-6.259H231.968a6.259,6.259,0,0,1,6.257,6.259Z" transform="translate(-96.641 -296.074)" fill="#1a1818"/>
  <g id="PLAY" transform="translate(10.62 9.404)">
    <g id="Group_366" data-name="Group 366" clip-path="url(#clip-path)">
      <path id="Path_68" data-name="Path 68" d="M135.006,328.285v31.364l15.815-15.682Z" transform="translate(-135.006 -328.773)" fill="url(#linear-gradient)"/>
      <path id="Path_69" data-name="Path 69" d="M155.069,339.457l-6.384-3.686-13.679-7.9v.114l15.815,15.682Z" transform="translate(-135.006 -328.475)" fill="url(#linear-gradient-2)"/>
      <path id="Path_70" data-name="Path 70" d="M135.006,400.619v.114l13.679-7.9,6.384-3.686-4.248-4.212Z" transform="translate(-135.006 -369.743)" fill="url(#linear-gradient-3)"/>
      <path id="Path_71" data-name="Path 71" d="M196.388,369.721l-4.248,4.212,4.248,4.212,7.3-4.212Z" transform="translate(-176.324 -358.739)" fill="url(#linear-gradient-4)"/>
    </g>
  </g>
  <g id="Group_367" data-name="Group 367" transform="translate(105.944 17.613)">
    <path id="Path_73" data-name="Path 73" d="M483.612,382.386a3.944,3.944,0,0,1-1.627-.329,3.066,3.066,0,0,1-1.236-1.011h-.1a12.27,12.27,0,0,1,.1,1.514v3.753h-1.381V373.1h1.123l.191,1.248h.066a3.211,3.211,0,0,1,1.241-1.082,3.767,3.767,0,0,1,1.622-.333,3.371,3.371,0,0,1,2.8,1.24,6.6,6.6,0,0,1-.016,6.97A3.379,3.379,0,0,1,483.612,382.386Zm-.2-8.281a2.448,2.448,0,0,0-2.022.774,3.985,3.985,0,0,0-.641,2.464v.308a4.563,4.563,0,0,0,.641,2.751,2.437,2.437,0,0,0,2.055.828,2.138,2.138,0,0,0,1.852-.957,4.541,4.541,0,0,0,.67-2.639,4.371,4.371,0,0,0-.67-2.617A2.2,2.2,0,0,0,483.412,374.105Z" transform="translate(-479.368 -369.27)" fill="#f9f9f9"/>
    <path id="Path_74" data-name="Path 74" d="M516.326,372.652h-1.382V359.7h1.382Z" transform="translate(-505.096 -359.703)" fill="#f9f9f9"/>
    <path id="Path_75" data-name="Path 75" d="M532.189,382.263l-.275-1.3h-.067a3.827,3.827,0,0,1-1.361,1.161,4.134,4.134,0,0,1-1.693.3,3.047,3.047,0,0,1-2.126-.7,2.549,2.549,0,0,1-.77-1.989q0-2.762,4.419-2.9l1.549-.05v-.566a2.31,2.31,0,0,0-.462-1.585,1.9,1.9,0,0,0-1.477-.512,6.015,6.015,0,0,0-2.58.7l-.425-1.057a6.492,6.492,0,0,1,1.478-.574,6.4,6.4,0,0,1,1.61-.208,3.475,3.475,0,0,1,2.418.724,3.024,3.024,0,0,1,.786,2.322v6.225Zm-3.121-.973a2.806,2.806,0,0,0,2.027-.707,2.619,2.619,0,0,0,.737-1.981v-.824l-1.382.058a5.026,5.026,0,0,0-2.376.513,1.543,1.543,0,0,0-.728,1.41,1.421,1.421,0,0,0,.454,1.14A1.88,1.88,0,0,0,529.068,381.289Z" transform="translate(-513.017 -369.313)" fill="#f9f9f9"/>
    <path id="Path_76" data-name="Path 76" d="M555.222,373.533H556.7l2,5.2a19.864,19.864,0,0,1,.816,2.572h.067q.108-.425.453-1.453t2.259-6.32h1.482l-3.92,10.386A5.18,5.18,0,0,1,558.5,386.1a2.894,2.894,0,0,1-1.909.644,5.588,5.588,0,0,1-1.249-.141V385.5a4.825,4.825,0,0,0,1.024.1,2.11,2.11,0,0,0,2.031-1.6l.507-1.3Z" transform="translate(-534.225 -369.705)" fill="#f9f9f9"/>
  </g>
  <g id="Group_369" data-name="Group 369" transform="translate(42.966 16.594)">
    <path id="Path_77" data-name="Path 77" d="M383.659,374.8a3.107,3.107,0,0,1-.249,5.284,1.342,1.342,0,0,0-.534.936,1.046,1.046,0,0,0,.5.82l.687.533a3.322,3.322,0,0,1,1.6,2.672c0,1.793-1.736,3.605-5.017,3.605-2.767,0-4.1-1.316-4.1-2.729a2.745,2.745,0,0,1,1.469-2.327,8.222,8.222,0,0,1,3.644-.878,2,2,0,0,1-.573-1.3,1.722,1.722,0,0,1,.191-.745c-.211.02-.42.038-.611.038a3.016,3.016,0,0,1-3.166-2.995,3.432,3.432,0,0,1,1.22-2.557,5.2,5.2,0,0,1,3.416-1.05h3.929l-1.221.687Zm-1.355,8.471a2.955,2.955,0,0,0-.438-.02,7.635,7.635,0,0,0-2,.307,2.143,2.143,0,0,0-1.641,1.965c0,1.354,1.317,2.328,3.359,2.328,1.831,0,2.8-.879,2.8-2.061C384.384,384.815,383.755,384.3,382.3,383.271Zm.554-3.625a1.93,1.93,0,0,0,.476-1.393c0-1.373-.82-3.51-2.4-3.51a1.782,1.782,0,0,0-1.336.63,2.2,2.2,0,0,0-.42,1.412c0,1.278.744,3.4,2.386,3.4A1.953,1.953,0,0,0,382.858,379.646Z" transform="translate(-342.028 -369.104)" fill="#f9f9f9"/>
    <path id="Path_78" data-name="Path 78" d="M346.72,382.259a4.5,4.5,0,0,1-4.647-4.5,4.72,4.72,0,0,1,4.934-4.627,4.453,4.453,0,0,1,4.551,4.495A4.654,4.654,0,0,1,346.72,382.259Zm2.381-1.543a3.445,3.445,0,0,0,.572-2.115c0-1.677-.8-4.876-3.162-4.876a2.653,2.653,0,0,0-1.714.649,2.882,2.882,0,0,0-.877,2.324c0,1.884.933,4.988,3.239,4.988A2.433,2.433,0,0,0,349.1,380.716Z" transform="translate(-317.1 -368.397)" fill="#f9f9f9"/>
    <path id="Path_79" data-name="Path 79" d="M309.424,382.259a4.5,4.5,0,0,1-4.648-4.5,4.72,4.72,0,0,1,4.934-4.627,4.453,4.453,0,0,1,4.552,4.495A4.654,4.654,0,0,1,309.424,382.259Zm2.381-1.543a3.45,3.45,0,0,0,.572-2.115c0-1.677-.8-4.876-3.162-4.876a2.654,2.654,0,0,0-1.714.649,2.882,2.882,0,0,0-.876,2.324c0,1.884.933,4.988,3.238,4.988A2.434,2.434,0,0,0,311.8,380.716Z" transform="translate(-290.127 -368.397)" fill="#f9f9f9"/>
    <path id="Path_80" data-name="Path 80" d="M265.05,370.7l-2.739.632a20.3,20.3,0,0,1-3.159.325c-5.286,0-7.3-3.888-7.3-6.932,0-3.715,2.853-7.161,7.737-7.161a11.023,11.023,0,0,1,2.929.4,7.465,7.465,0,0,1,2.528,1.187l-1.59,1.513-.67.152.479-.766a5.473,5.473,0,0,0-4.1-1.8c-3.026,0-5.305,2.3-5.305,5.65a6.772,6.772,0,0,0,6.779,6.989,5.7,5.7,0,0,0,2.432-.479v-3.083l-2.891.153,1.531-.824h4.06l-.5.479a.447.447,0,0,0-.192.306c-.02.173-.038.729-.038.92Z" transform="translate(-251.856 -357.133)" fill="#f9f9f9"/>
    <path id="Path_81" data-name="Path 81" d="M413.489,369.03c-.632-.058-.765-.172-.765-.92V357.272c0-.041.007-.084.01-.123.077-.67.268-.785.863-1.13h-2.74l-1.437.69h1.464v11.824c0,.382-.076.44-.517,1.014h3.39l.708-.42C414.141,369.087,413.815,369.069,413.489,369.03Z" transform="translate(-365.805 -356.019)" fill="#f9f9f9"/>
    <path id="Path_82" data-name="Path 82" d="M434.131,381.6c-.209.114-.418.248-.626.342a4.429,4.429,0,0,1-1.847.362,4.064,4.064,0,0,1-2.53-.742,4.922,4.922,0,0,1-1.939-4.013,4.31,4.31,0,0,1,4.355-4.392,3.7,3.7,0,0,1,1.96.533,3.149,3.149,0,0,1,1.33,1.882l-4.468,1.807-1.465.114c.475,2.415,2.11,3.821,3.918,3.821a4.913,4.913,0,0,0,2.32-.664Zm-1.787-5.668c.36-.133.551-.247.551-.513a1.887,1.887,0,0,0-1.883-1.635,2.342,2.342,0,0,0-2.187,2.643c0,.323.038.665.058,1.009Z" transform="translate(-378.655 -368.412)" fill="#f9f9f9"/>
    <g id="Group_368" data-name="Group 368" transform="translate(56.744 4.744)">
      <path id="Path_83" data-name="Path 83" d="M457.414,373.286v1.255h-.152v-1.255h-.415v-.13h.982v.13Z" transform="translate(-456.846 -373.156)" fill="#f9f9f9"/>
      <path id="Path_84" data-name="Path 84" d="M462.344,374.541v-1.266h-.007l-.387,1.266h-.119l-.39-1.266h0v1.266H461.3v-1.385h.237l.353,1.119h0l.347-1.119h.241v1.385Z" transform="translate(-460.066 -373.156)" fill="#f9f9f9"/>
    </g>
  </g>
  <g id="Group_370" data-name="Group 370" transform="translate(42.998 9.33)">
    <path id="Path_85" data-name="Path 85" d="M255.745,333.974h-.951a6.312,6.312,0,0,0-.271-1.112h-1.374a5.748,5.748,0,0,0-.28,1.112h-.895q0-.116.694-1.9a14.959,14.959,0,0,0,.695-1.968h1.124a16.431,16.431,0,0,0,.629,1.94A17,17,0,0,1,255.745,333.974Zm-1.374-1.68a16.822,16.822,0,0,1-.509-1.659h-.048q0,.116-.526,1.659Z" transform="translate(-251.974 -330.014)" fill="#f7f8f8"/>
    <path id="Path_86" data-name="Path 86" d="M271.111,333.974h-.735a7.239,7.239,0,0,0-.818-1.287,7.09,7.09,0,0,1-.975-1.68h-.048a10.482,10.482,0,0,1,.074,1.178q0,.735.042,1.79h-.732q.045-.922.045-2.025,0-1.085-.045-1.846h.883a5.594,5.594,0,0,0,.734,1.258,7.4,7.4,0,0,1,.9,1.585h.045a11.289,11.289,0,0,1-.071-1.189q0-.806-.042-1.653h.743q-.042.737-.042,1.846T271.111,333.974Z" transform="translate(-263.506 -330.014)" fill="#f7f8f8"/>
    <path id="Path_87" data-name="Path 87" d="M286.471,331.858a2.193,2.193,0,0,1-.541,1.475,1.89,1.89,0,0,1-1.516.631q-.44,0-1.213-.036.039-.9.039-2.025,0-1.082-.039-1.846h.52q.128,0,.381-.009c.168-.006.279-.009.33-.009a2,2,0,0,1,1.557.535A1.85,1.85,0,0,1,286.471,331.858Zm-.812.128a1.433,1.433,0,0,0-.333-.962,1.262,1.262,0,0,0-1.017-.391,3.15,3.15,0,0,0-.351.027q.03.6.03,1.243,0,.711.03,1.41a1.969,1.969,0,0,0,.387.039,1.123,1.123,0,0,0,.947-.4A1.532,1.532,0,0,0,285.659,331.986Z" transform="translate(-274.556 -329.967)" fill="#f7f8f8"/>
    <path id="Path_88" data-name="Path 88" d="M301.185,333.927h-.88a5.839,5.839,0,0,0-.529-1.3.693.693,0,0,0-.595-.247c-.115,0-.225,0-.33,0q0,.764.027,1.543h-.827q.039-.9.038-2.025,0-1.082-.038-1.846h.514q.089,0,.373-.009t.525-.009q1.365,0,1.365.934a1.048,1.048,0,0,1-.779,1.032v.045a.929.929,0,0,1,.526.468A10.355,10.355,0,0,1,301.185,333.927Zm-1.115-2.736q0-.592-.761-.592a2.592,2.592,0,0,0-.494.042q.033.461.033,1.2.163.006.277.006Q300.07,331.849,300.07,331.192Z" transform="translate(-285.296 -329.967)" fill="#f7f8f8"/>
    <path id="Path_89" data-name="Path 89" d="M314.882,331.734a2.136,2.136,0,0,1-.559,1.514,1.814,1.814,0,0,1-1.383.6,1.747,1.747,0,0,1-1.314-.552,1.942,1.942,0,0,1-.529-1.4,2.134,2.134,0,0,1,.559-1.514,1.814,1.814,0,0,1,1.383-.6,1.749,1.749,0,0,1,1.314.55A1.941,1.941,0,0,1,314.882,331.734Zm-.82.086a1.535,1.535,0,0,0-.318-1.008.98.98,0,0,0-.785-.387.907.907,0,0,0-.737.39,1.554,1.554,0,0,0-.3.984,1.531,1.531,0,0,0,.32,1.006.979.979,0,0,0,.784.388.906.906,0,0,0,.737-.391A1.556,1.556,0,0,0,314.062,331.82Z" transform="translate(-294.731 -329.78)" fill="#f7f8f8"/>
    <path id="Path_90" data-name="Path 90" d="M328.647,333.974H327.8q.039-.922.039-2.025,0-1.085-.039-1.846h.842q-.039.749-.039,1.846Q328.608,333.071,328.647,333.974Z" transform="translate(-306.814 -330.014)" fill="#f7f8f8"/>
    <path id="Path_91" data-name="Path 91" d="M337.87,331.858a2.193,2.193,0,0,1-.541,1.475,1.89,1.89,0,0,1-1.516.631q-.44,0-1.213-.036.039-.9.039-2.025,0-1.082-.039-1.846h.52q.128,0,.381-.009t.33-.009a2,2,0,0,1,1.557.535A1.851,1.851,0,0,1,337.87,331.858Zm-.812.128a1.434,1.434,0,0,0-.333-.962,1.263,1.263,0,0,0-1.017-.391,3.145,3.145,0,0,0-.351.027q.03.6.03,1.243,0,.711.03,1.41a1.969,1.969,0,0,0,.387.039,1.123,1.123,0,0,0,.947-.4A1.532,1.532,0,0,0,337.058,331.986Z" transform="translate(-311.727 -329.967)" fill="#f7f8f8"/>
    <path id="Path_92" data-name="Path 92" d="M357.221,333.974h-.951a6.273,6.273,0,0,0-.271-1.112h-1.374a5.737,5.737,0,0,0-.279,1.112h-.895q0-.116.694-1.9a14.93,14.93,0,0,0,.694-1.968h1.124a16.409,16.409,0,0,0,.629,1.94A17.067,17.067,0,0,1,357.221,333.974Zm-1.374-1.68a16.886,16.886,0,0,1-.509-1.659h-.047q0,.116-.526,1.659Z" transform="translate(-325.36 -330.014)" fill="#f7f8f8"/>
    <path id="Path_93" data-name="Path 93" d="M372.221,331.07a1.159,1.159,0,0,1-.528,1.05,2.347,2.347,0,0,1-1.295.339q-.14,0-.2-.006,0,.559.033,1.475H369.4q.039-.859.039-2.025,0-1.07-.039-1.846h.518q.11,0,.422-.009t.541-.009a1.7,1.7,0,0,1,.954.256A.865.865,0,0,1,372.221,331.07Zm-.767.163q0-.636-.845-.636a2.378,2.378,0,0,0-.446.045q.033.562.033,1.273c.05,0,.107.006.172.006Q371.454,331.92,371.454,331.233Z" transform="translate(-336.892 -329.967)" fill="#f7f8f8"/>
    <path id="Path_94" data-name="Path 94" d="M385.1,331.07a1.159,1.159,0,0,1-.528,1.05,2.349,2.349,0,0,1-1.3.339c-.093,0-.159,0-.2-.006q0,.559.033,1.475h-.836q.039-.859.039-2.025,0-1.07-.039-1.846h.517q.11,0,.422-.009t.541-.009a1.7,1.7,0,0,1,.954.256A.865.865,0,0,1,385.1,331.07Zm-.767.163q0-.636-.845-.636a2.378,2.378,0,0,0-.446.045q.033.562.033,1.273.074.006.172.006Q384.338,331.92,384.338,331.233Z" transform="translate(-346.21 -329.967)" fill="#f7f8f8"/>
    <path id="Path_95" data-name="Path 95" d="M403.66,331.734a2.135,2.135,0,0,1-.559,1.514,1.814,1.814,0,0,1-1.383.6,1.747,1.747,0,0,1-1.314-.552,1.943,1.943,0,0,1-.529-1.4,2.135,2.135,0,0,1,.559-1.514,1.815,1.815,0,0,1,1.383-.6,1.75,1.75,0,0,1,1.314.55A1.942,1.942,0,0,1,403.66,331.734Zm-.821.086a1.533,1.533,0,0,0-.318-1.008.979.979,0,0,0-.785-.387.907.907,0,0,0-.738.39,1.554,1.554,0,0,0-.3.984,1.531,1.531,0,0,0,.32,1.006.979.979,0,0,0,.783.388.9.9,0,0,0,.737-.391A1.554,1.554,0,0,0,402.84,331.82Z" transform="translate(-358.934 -329.78)" fill="#f7f8f8"/>
    <path id="Path_96" data-name="Path 96" d="M419.775,333.974h-.734a7.24,7.24,0,0,0-.818-1.287,7.094,7.094,0,0,1-.976-1.68H417.2a10.535,10.535,0,0,1,.074,1.178q0,.735.042,1.79h-.732q.044-.922.045-2.025,0-1.085-.045-1.846h.883a5.6,5.6,0,0,0,.735,1.258,7.4,7.4,0,0,1,.9,1.585h.045a11.228,11.228,0,0,1-.071-1.189q0-.806-.042-1.653h.743q-.042.737-.042,1.846T419.775,333.974Z" transform="translate(-371.018 -330.014)" fill="#f7f8f8"/>
  </g>
</svg>
